<svg width="30" height="30" viewBox="0 0 30 30" fill="none" xmlns="http://www.w3.org/2000/svg">
<path fill-rule="evenodd" clip-rule="evenodd" d="M15.0124 0C6.71094 0 0 6.76044 0 15.1239C0 21.8094 4.29992 27.4684 10.2651 29.4714C11.0109 29.6219 11.2841 29.1459 11.2841 28.7456C11.2841 28.3949 11.2594 27.1931 11.2594 25.9409C7.08337 26.8425 6.21374 24.1381 6.21374 24.1381C5.54261 22.3852 4.54822 21.9347 4.54822 21.9347C3.18139 21.0082 4.64778 21.0082 4.64778 21.0082C6.16396 21.1084 6.95956 22.5607 6.95956 22.5607C8.3015 24.8642 10.4639 24.2133 11.3338 23.8126C11.458 22.8361 11.8559 22.16 12.2784 21.7845C8.94769 21.4339 5.44336 20.1319 5.44336 14.3226C5.44336 12.6699 6.03951 11.3179 6.98412 10.2663C6.83506 9.89081 6.313 8.33806 7.13344 6.25981C7.13344 6.25981 8.40106 5.85912 11.2591 7.81225C12.4828 7.48119 13.7447 7.31281 15.0124 7.31137C16.28 7.31137 17.5721 7.48687 18.7654 7.81225C21.6238 5.85912 22.8914 6.25981 22.8914 6.25981C23.7118 8.33806 23.1894 9.89081 23.0404 10.2663C24.0099 11.3179 24.5814 12.6699 24.5814 14.3226C24.5814 20.1319 21.0771 21.4087 17.7215 21.7845C18.2685 22.2602 18.7405 23.1615 18.7405 24.5888C18.7405 26.6169 18.7159 28.2447 18.7159 28.7452C18.7159 29.1459 18.9894 29.6219 19.7349 29.4717C25.7 27.4682 29.9999 21.8094 29.9999 15.1239C30.0245 6.76044 23.289 0 15.0124 0Z" fill="#5B3700"/>
</svg>
