<svg width="101" height="91" viewBox="0 0 101 91" fill="none" xmlns="http://www.w3.org/2000/svg">
<g filter="url(#filter0_d_210_853)">
<path d="M44.166 60.3109C44.1444 57.2085 46.9251 54.674 50.3768 54.6499C53.8285 54.6259 56.6441 57.1214 56.6657 60.2239C56.6873 63.3263 53.9067 65.8608 50.455 65.8848C47.0033 65.9088 44.1876 63.4133 44.166 60.3109Z" fill="#5B3700"/>
<path fill-rule="evenodd" clip-rule="evenodd" d="M32.0324 40.1609L30.644 29.5382C30.4661 28.1763 30.4565 26.8006 30.6155 25.4364L30.705 24.6684C31.6545 16.5221 38.7287 10.0325 47.7709 9.01267C49.2899 8.84135 50.8257 8.83066 52.3469 8.98082C61.4024 9.87468 68.5662 16.2652 69.6291 24.3974L69.7293 25.1641C69.9073 26.526 69.9168 27.9017 69.7578 29.2659L68.5175 39.9069L71.3797 40.0923C75.8932 40.3846 79.5981 43.4069 80.3574 47.4161C81.9409 55.7779 82.0003 64.3176 80.5334 72.7006C79.83 76.7199 76.1675 79.7936 71.6585 80.1487L65.4279 80.6394C55.5357 81.4184 45.5912 81.4876 35.6891 80.8464L29.4523 80.4425C24.9388 80.1502 21.2339 77.1278 20.4746 73.1187C18.8911 64.7569 18.8316 56.2172 20.2986 47.8341C21.002 43.8148 24.6644 40.7412 29.1734 40.386L32.0324 40.1609ZM48.54 14.5865C49.5742 14.4699 50.6198 14.4626 51.6554 14.5649C57.8208 15.1734 62.6981 19.5243 63.4218 25.061L63.522 25.8277C63.6461 26.7777 63.6528 27.7372 63.5419 28.6888L62.2791 39.5228C54.2794 39.1156 46.2581 39.1715 38.2648 39.6899L36.8514 28.8746C36.7272 27.9246 36.7205 26.9651 36.8314 26.0135L36.921 25.2455C37.5674 19.6992 42.3837 15.2809 48.54 14.5865ZM64.6845 45.2914C55.1136 44.6716 45.5018 44.7385 35.9404 45.4915L29.7098 45.9822C28.0651 46.1117 26.7292 47.2329 26.4727 48.6989C25.111 56.4801 25.1662 64.4066 26.636 72.168C26.913 73.6303 28.2643 74.7328 29.9106 74.8394L36.1475 75.2433C45.7184 75.8631 55.3302 75.7962 64.8916 75.0432L71.1222 74.5525C72.7669 74.423 74.1028 73.3019 74.3593 71.8358C75.721 64.0547 75.6658 56.1282 74.196 48.3667C73.919 46.9044 72.5677 45.802 70.9213 45.6953L64.6845 45.2914Z" fill="#5B3700"/>
</g>
<defs>
<filter id="filter0_d_210_853" x="-4" y="0" width="108.623" height="98.5751" filterUnits="userSpaceOnUse" color-interpolation-filters="sRGB">
<feFlood flood-opacity="0" result="BackgroundImageFix"/>
<feColorMatrix in="SourceAlpha" type="matrix" values="0 0 0 0 0 0 0 0 0 0 0 0 0 0 0 0 0 0 127 0" result="hardAlpha"/>
<feOffset dy="4"/>
<feGaussianBlur stdDeviation="2"/>
<feComposite in2="hardAlpha" operator="out"/>
<feColorMatrix type="matrix" values="0 0 0 0 0 0 0 0 0 0 0 0 0 0 0 0 0 0 0.25 0"/>
<feBlend mode="normal" in2="BackgroundImageFix" result="effect1_dropShadow_210_853"/>
<feBlend mode="normal" in="SourceGraphic" in2="effect1_dropShadow_210_853" result="shape"/>
</filter>
</defs>
</svg>
