<svg width="25" height="25" viewBox="0 0 25 25" fill="none" xmlns="http://www.w3.org/2000/svg">
<path fill-rule="evenodd" clip-rule="evenodd" d="M24.1429 2.8054L22.185 0.847499C21.6336 0.300495 20.887 -0.00444188 20.1102 4.89075e-05C19.3386 -0.000566899 18.598 0.304078 18.0501 0.847499L15.6246 3.27296C15.3093 3.19236 14.9857 3.14824 14.6603 3.14146C13.5011 3.15022 12.3926 3.61779 11.5773 4.44186L2.81057 13.2086C1.10133 14.92 1.10133 17.6924 2.81057 19.4037L3.39502 19.9882L0.326663 23.0565C0.117799 23.2601 0 23.5393 0 23.8309C0 24.1226 0.117799 24.4018 0.326663 24.6053C0.530091 24.8137 0.809868 24.9298 1.10106 24.9268C1.39192 24.9282 1.67106 24.8123 1.87545 24.6053L4.94381 21.537L5.61592 22.2091C7.32729 23.9183 10.0997 23.9183 11.8111 22.2091L20.5778 13.4424C21.6376 12.3781 22.0787 10.8453 21.7467 9.38045L24.1429 6.94038C24.6917 6.39226 25 5.64848 25 4.87289C25 4.0973 24.6917 3.35352 24.1429 2.8054ZM18.9998 11.9082L10.2331 20.6749C9.38451 21.4913 8.04249 21.4913 7.19393 20.6749L4.34475 17.8403C3.49013 16.9847 3.49013 15.5984 4.34475 14.7428L13.1115 5.97604C13.7304 5.36362 14.6502 5.16939 15.4639 5.47925L19.4966 9.51195C19.8339 10.3374 19.6374 11.2849 18.9998 11.9082ZM20.6363 7.33488L22.5942 5.42081V5.39159C22.8744 5.10256 22.8744 4.64322 22.5942 4.35419L20.6363 2.39629C20.3443 2.12348 19.8908 2.12348 19.5989 2.39629L17.6556 4.35419C17.6848 4.44186 17.7578 4.44186 17.7578 4.44186L20.5486 7.2326L20.6363 7.33488Z" fill="#5B3700"/>
</svg>
