<svg width="25" height="30" viewBox="0 0 25 30" fill="none" xmlns="http://www.w3.org/2000/svg">
<path d="M9.99395 20.6236C9.98529 19.3797 11.1002 18.3634 12.4842 18.3537C13.8682 18.3441 14.9972 19.3448 15.0059 20.5887C15.0145 21.8327 13.8996 22.8489 12.5156 22.8585C11.1316 22.8682 10.0026 21.8675 9.99395 20.6236Z" fill="#5B3700"/>
<path fill-rule="evenodd" clip-rule="evenodd" d="M5.12887 12.5442L4.5722 8.28492C4.50083 7.73884 4.497 7.18724 4.56075 6.64022L4.59664 6.33228C4.97737 3.06594 7.81382 0.463852 11.4394 0.0549341C12.0485 -0.0137574 12.6643 -0.0180438 13.2742 0.0421626C16.9051 0.400568 19.7776 2.96291 20.2037 6.22364L20.2439 6.53105C20.3153 7.07709 20.3191 7.62869 20.2553 8.17573L19.7581 12.4423L20.9057 12.5167C22.7154 12.6339 24.2009 13.8457 24.5054 15.4533C25.1403 18.806 25.1641 22.2301 24.5759 25.5914C24.2939 27.203 22.8254 28.4354 21.0175 28.5778L18.5192 28.7745C14.5528 29.0869 10.5655 29.1147 6.59508 28.8575L4.09435 28.6956C2.2846 28.5784 0.79907 27.3665 0.494651 25.759C-0.140293 22.4063 -0.164128 18.9821 0.424077 15.6209C0.706096 14.0093 2.1746 12.7769 3.98254 12.6345L5.12887 12.5442ZM11.7478 2.28985C12.1625 2.24308 12.5817 2.24016 12.997 2.28115C15.469 2.52517 17.4247 4.2697 17.7148 6.48971L17.755 6.7971C17.8048 7.17804 17.8075 7.56279 17.763 7.94433L17.2567 12.2883C14.0491 12.1251 10.8329 12.1475 7.62789 12.3554L7.06109 8.01883C7.01133 7.6379 7.00861 7.25315 7.05311 6.8716L7.08903 6.56367C7.34824 4.33984 9.27935 2.56825 11.7478 2.28985ZM18.2211 14.6014C14.3835 14.3528 10.5296 14.3797 6.69583 14.6816L4.19759 14.8783C3.53814 14.9302 3.0025 15.3798 2.89963 15.9676C2.35366 19.0876 2.37578 22.2658 2.96513 25.3779C3.07617 25.9642 3.61803 26.4062 4.27814 26.449L6.77884 26.6109C10.6165 26.8594 14.4704 26.8326 18.3042 26.5307L20.8024 26.3339C21.4619 26.282 21.9975 25.8325 22.1004 25.2446C22.6464 22.1247 22.6242 18.9464 22.0349 15.8344C21.9238 15.2481 21.382 14.806 20.7219 14.7633L18.2211 14.6014Z" fill="#5B3700"/>
</svg>
