<svg width="20" height="20" viewBox="0 0 20 20" fill="none" xmlns="http://www.w3.org/2000/svg">
<path fill-rule="evenodd" clip-rule="evenodd" d="M17.9724 4.58565C17.9724 3.43505 17.0396 2.50231 15.889 2.50231H3.83903C2.78185 2.45277 1.85678 3.20681 1.69216 4.25227C1.52753 5.29774 2.17611 6.29957 3.19736 6.57731V14.0773C3.19735 15.6204 4.4459 16.8727 5.98903 16.8773H13.7224C14.4664 16.8795 15.1808 16.5855 15.7076 16.0602C16.2346 15.5348 16.5307 14.8213 16.5307 14.0773V6.57731C17.3952 6.30026 17.9792 5.49339 17.9724 4.58565ZM13.7307 15.619H5.99738C5.58851 15.619 5.19638 15.4566 4.90725 15.1674C4.61812 14.8783 4.45568 14.4862 4.45568 14.0773V6.66896H15.289V14.0773C15.2891 14.4891 15.1243 14.8838 14.8316 15.1733C14.5389 15.463 14.1425 15.6234 13.7307 15.619ZM3.83903 5.41896H15.889C16.3492 5.41896 16.7224 5.04587 16.7224 4.58565C16.7224 4.1254 16.3492 3.75231 15.889 3.75231H3.83903C3.37879 3.75231 3.0057 4.1254 3.0057 4.58565C3.0057 5.04587 3.37879 5.41896 3.83903 5.41896Z" fill="#9D0000" fill-opacity="0.75"/>
<path d="M11.739 8.8606H7.98901C7.64384 8.8606 7.36401 9.14042 7.36401 9.4856C7.36401 9.83077 7.64384 10.1106 7.98901 10.1106H11.739C12.0842 10.1106 12.364 9.83077 12.364 9.4856C12.364 9.14042 12.0842 8.8606 11.739 8.8606Z" fill="#9D0000" fill-opacity="0.75"/>
</svg>
