<svg width="37" height="38" viewBox="0 0 37 38" fill="none" xmlns="http://www.w3.org/2000/svg">
<path fill-rule="evenodd" clip-rule="evenodd" d="M2.03504 10.8663C4.7686 4.30233 11.1734 0.0192369 18.2837 0.000246915C25.9469 -0.0401031 32.7609 4.86844 35.1497 12.15C37.5384 19.4315 34.9564 27.4225 28.7585 31.9294C22.5606 36.4364 14.1627 36.4297 7.9721 31.9128L2.45207 37.4328C1.89083 37.9933 0.981638 37.9933 0.420398 37.4328C-0.140132 36.8716 -0.140132 35.9624 0.420398 35.4011L5.7679 30.0536C0.772878 24.9933 -0.698523 17.4301 2.03504 10.8663ZM4.5979 23.3241C6.8931 28.855 12.2956 32.4572 18.2837 32.4495V32.3728C26.411 32.3624 33.0086 25.799 33.0612 17.672C33.069 11.6838 29.4667 6.28126 23.9359 3.98609C18.405 1.69094 12.036 2.95566 7.8018 7.18996C3.56748 11.4243 2.30275 17.7932 4.5979 23.3241Z" fill="black"/>
</svg>
