<svg width="26" height="22" viewBox="0 0 26 22" fill="none" xmlns="http://www.w3.org/2000/svg">
<path fill-rule="evenodd" clip-rule="evenodd" d="M25.1413 2.57426C25.3982 1.11685 23.9673 -0.0594392 22.6112 0.494435L1.29612 9.20049C-0.190202 9.80748 -0.293776 11.9688 1.25285 12.645C2.39716 13.1454 4.14885 13.8801 5.90722 14.4965C7.34953 15.002 8.92284 15.475 10.1862 15.6214C10.5271 16.046 10.9578 16.4554 11.3959 16.8306C12.0667 17.4054 12.8758 18.0002 13.7115 18.5706C15.3851 19.7126 17.2443 20.8094 18.4977 21.5227C19.9956 22.3751 21.8138 21.4482 22.1065 19.7884L25.1413 2.57426ZM3.65161 10.9463L22.503 3.24657L19.6705 19.314C18.4414 18.6138 16.6701 17.5661 15.0948 16.4912C14.2978 15.9472 13.5704 15.4095 12.9956 14.9171C12.7909 14.7416 12.6178 14.5821 12.4737 14.4395L17.4481 9.54589C17.9385 9.06347 17.9487 8.26914 17.4709 7.77181C16.9932 7.27445 16.2082 7.26237 15.7178 7.74482L10.2697 13.1042C9.36201 12.9725 8.09891 12.611 6.71422 12.1257C5.64858 11.7521 4.57772 11.33 3.65161 10.9463Z" fill="#5B3700"/>
</svg>
