<svg width="25" height="25" viewBox="0 0 25 25" fill="none" xmlns="http://www.w3.org/2000/svg">
<path d="M11.8285 0.425985C18.3612 0.190678 23.8218 5.40773 24.0249 12.0786C24.2281 18.7494 19.0969 24.348 12.5642 24.5833C10.4781 24.6585 8.49862 24.1768 6.76557 23.2683L6.39803 23.0671L2.84447 24.2735C1.98843 24.5641 1.15935 23.8248 1.28845 22.9451L1.31512 22.8122L2.2584 19.1121C1.12353 17.3284 0.437367 15.2131 0.367856 12.9307C0.164695 6.25986 5.29581 0.661295 11.8285 0.425985ZM11.9021 2.84172C6.67592 3.02997 2.57103 7.50882 2.73356 12.8455C2.79157 14.7502 3.38399 16.5034 4.35897 17.9645C4.60511 18.3335 4.71904 18.7935 4.65354 19.2563L4.61435 19.4546L4.14718 21.2871L5.9071 20.6898C6.41398 20.5177 6.94959 20.5925 7.38024 20.8511C8.8729 21.7475 10.6254 22.2348 12.4907 22.1676C17.7169 21.9794 21.8217 17.5005 21.6592 12.1638C21.4967 6.82711 17.1283 2.65347 11.9021 2.84172ZM8.59087 6.81116C8.84278 6.69024 9.15263 6.69954 9.40264 6.87283C10.0128 7.29578 10.5047 7.87485 10.9293 8.44321L11.3333 9.00184C11.3975 9.09229 11.4604 9.1809 11.522 9.26689C11.7478 9.58153 11.7359 10.0108 11.5002 10.312L11.4134 10.4074L10.3464 11.2751C10.2406 11.3611 10.2091 11.5116 10.2777 11.63C10.5389 12.0804 11 12.7481 11.5194 13.2444C12.0395 13.7413 12.7551 14.1947 13.2444 14.4581C13.3501 14.515 13.4758 14.4913 13.5582 14.4093L13.6019 14.3532L14.2789 13.2223C14.54 12.8423 15.0464 12.743 15.4243 12.9911L16.0803 13.425C16.7326 13.8671 17.3621 14.3449 17.8669 14.9623C18.0658 15.2056 18.1042 15.5315 17.9984 15.8074C17.564 16.9405 16.4074 17.9338 15.1728 17.9318L14.985 17.9275L14.7573 17.9127C14.7161 17.9092 14.6734 17.9051 14.6293 17.9003L14.3467 17.8628C13.2476 17.6915 11.4757 17.1219 9.60433 15.3341C7.73303 13.5462 7.05894 11.7787 6.81863 10.6704L6.76328 10.385L6.72599 10.1351L6.70333 9.92369C6.70058 9.89182 6.69829 9.86167 6.6964 9.8333C6.61255 8.57391 7.51162 7.32926 8.59087 6.81116Z" fill="#5B3700"/>
</svg>
