<svg width="30" height="22" viewBox="0 0 30 22" fill="none" xmlns="http://www.w3.org/2000/svg">
<path d="M29.7012 4.55274C29.7012 4.55274 29.4082 2.48437 28.5059 1.57617C27.3633 0.380859 26.0859 0.374999 25.5 0.304687C21.3047 -6.33299e-07 15.0059 0 15.0059 0H14.9941C14.9941 0 8.69531 -6.33299e-07 4.5 0.304687C3.91406 0.374999 2.63672 0.380859 1.49414 1.57617C0.591797 2.48437 0.304688 4.55274 0.304688 4.55274C0.304688 4.55274 0 6.98436 0 9.41017V11.6836C0 14.1094 0.298828 16.541 0.298828 16.541C0.298828 16.541 0.591797 18.6094 1.48828 19.5175C2.63086 20.7129 4.13086 20.6719 4.79883 20.8008C7.20119 21.0293 15 21.0996 15 21.0996C15 21.0996 21.3047 21.0879 25.5 20.789C26.0859 20.7187 27.3633 20.7129 28.5059 19.5175C29.4082 18.6094 29.7012 16.541 29.7012 16.541C29.7012 16.541 30 14.1152 30 11.6836V9.41017C30 6.98436 29.7012 4.55274 29.7012 4.55274ZM11.9004 14.4434V6.01172L20.0039 10.2422L11.9004 14.4434Z" fill="#5B3700"/>
</svg>
