<svg width="24" height="24" viewBox="0 0 24 24" fill="none" xmlns="http://www.w3.org/2000/svg">
<path d="M17.1789 1.07848C20.5902 1.14348 23.3117 3.95701 23.2575 7.36267L23.1006 17.2291C23.0465 20.6347 20.2372 23.3429 16.8259 23.2779L6.94319 23.0895C3.53191 23.0245 0.81041 20.211 0.864564 16.8053L1.02145 6.93896C1.07561 3.5333 3.88491 0.825156 7.29619 0.890159L17.1789 1.07848ZM12.1395 7.15081C9.41045 7.09881 7.16302 9.26532 7.11969 11.9898C7.07637 14.7143 9.25357 16.9652 11.9826 17.0172C14.7116 17.0692 16.9591 14.9026 17.0024 12.1782C17.0457 9.45364 14.8685 7.20281 12.1395 7.15081ZM12.1003 9.61741C13.4648 9.64341 14.5534 10.7688 14.5317 12.1311C14.5101 13.4934 13.3864 14.5766 12.0218 14.5506C10.6573 14.5246 9.56871 13.3992 9.59037 12.0369C9.61203 10.6746 10.7357 9.59141 12.1003 9.61741ZM17.7279 5.40679C17.0456 5.39379 16.4838 5.93542 16.473 6.61655C16.4621 7.29768 17.0064 7.86039 17.6887 7.87339C18.371 7.88639 18.9328 7.34476 18.9436 6.66363C18.9545 5.9825 18.4102 5.41979 17.7279 5.40679Z" fill="#5B3700"/>
</svg>
