<svg width="35" height="36" viewBox="0 0 35 36" fill="none" xmlns="http://www.w3.org/2000/svg">
<path fill-rule="evenodd" clip-rule="evenodd" d="M30.7615 12.0192C31.1016 12.8481 31.9077 13.3903 32.8036 13.3929C34.0195 13.4027 35 14.3912 35 15.6071V19.4286C35 20.6515 34.0086 21.6429 32.7857 21.6429C31.8898 21.6455 31.0838 22.1877 30.7437 23.0165C30.4035 23.8453 30.5963 24.7974 31.2321 25.4286C32.0851 26.3026 32.0851 27.6974 31.2321 28.5714L28.5536 31.25C27.6795 32.1029 26.2847 32.1029 25.4107 31.25C25.0076 30.8229 24.4444 30.5834 23.8571 30.5893C23.2668 30.5845 22.699 30.8157 22.2798 31.2315C21.8607 31.6473 21.625 32.2132 21.625 32.8036C21.625 34.0265 20.6336 35.0179 19.4107 35.0179H15.5893C14.3664 35.0179 13.375 34.0265 13.375 32.8036C13.375 32.2132 13.1393 31.6473 12.7201 31.2315C12.301 30.8157 11.7332 30.5845 11.1429 30.5893C10.5555 30.5834 9.99243 30.8229 9.58928 31.25C8.71526 32.1029 7.32045 32.1029 6.44643 31.25L3.76786 28.5714C2.91494 27.6974 2.91494 26.3026 3.76786 25.4286C4.40366 24.7974 4.59647 23.8453 4.25634 23.0165C3.91622 22.1877 3.11017 21.6455 2.21429 21.6429C1.62702 21.6429 1.06381 21.4096 0.648549 20.9943C0.23329 20.5791 0 20.0158 0 19.4286V15.6071C0 14.3842 0.991369 13.3929 2.21429 13.3929C3.11017 13.3903 3.91622 12.8481 4.25634 12.0192C4.59647 11.1904 4.40366 10.2383 3.76786 9.60714C2.91494 8.73312 2.91494 7.33831 3.76786 6.46429L6.44643 3.78571C7.32045 2.9328 8.71526 2.9328 9.58928 3.78571C9.99243 4.21285 10.5555 4.45233 11.1429 4.44643C11.7363 4.45123 12.3069 4.21761 12.7265 3.79795C13.1462 3.3783 13.3798 2.80775 13.375 2.21429C13.375 0.99137 14.3664 0 15.5893 0H19.4286C20.6515 0 21.6429 0.99137 21.6429 2.21429C21.6381 2.80775 21.8717 3.3783 22.2913 3.79795C22.711 4.21761 23.2815 4.45123 23.875 4.44643C24.4623 4.45233 25.0254 4.21285 25.4286 3.78571C26.3026 2.9328 27.6974 2.9328 28.5714 3.78571L31.25 6.46429C32.1029 7.33831 32.1029 8.73312 31.25 9.60714C30.6142 10.2383 30.4214 11.1904 30.7615 12.0192ZM28.2143 21.9821C28.9114 20.2826 30.5076 19.1216 32.3393 18.9821L32.2857 16.0536C30.4739 15.8947 28.9027 14.737 28.2143 13.0536C27.5399 11.3662 27.8487 9.44466 29.0179 8.05357L26.9643 6C26.0934 6.72931 24.993 7.12772 23.8571 7.125C21.3265 7.1188 19.2118 5.19706 18.9643 2.67857H16.0357C15.7962 5.20107 13.6767 7.12714 11.1429 7.125C10.007 7.12772 8.90657 6.72931 8.03571 6L6.03571 8.05357C7.18666 9.45528 7.47474 11.3759 6.78571 13.0536C6.09727 14.737 4.52606 15.8947 2.71429 16.0536V18.9821C4.52606 19.141 6.09727 20.2988 6.78571 21.9821C7.46007 23.6695 7.15125 25.5911 5.98214 26.9821L8.03571 29.0357C8.90657 28.3064 10.007 27.908 11.1429 27.9107C13.6735 27.9169 15.7882 29.8387 16.0357 32.3571H18.9643C19.1875 29.8265 21.3168 27.8916 23.8571 27.9107C24.993 27.908 26.0934 28.3064 26.9643 29.0357L28.9643 26.9821C27.8133 25.5804 27.5253 23.6599 28.2143 21.9821Z" fill="#4F2F00"/>
<path fill-rule="evenodd" clip-rule="evenodd" d="M11.3214 17.5179C11.3214 14.1055 14.0877 11.3393 17.5 11.3393C19.1387 11.3393 20.7102 11.9902 21.8689 13.1489C23.0276 14.3077 23.6786 15.8792 23.6786 17.5179C23.6786 20.9302 20.9123 23.6964 17.5 23.6964C14.0877 23.6964 11.3214 20.9302 11.3214 17.5179ZM13.9286 17.5179C13.9286 19.4903 15.5276 21.0893 17.5 21.0893C19.4724 21.0893 21.0714 19.4903 21.0714 17.5179C21.0714 15.5454 19.4724 13.9464 17.5 13.9464C15.5276 13.9464 13.9286 15.5454 13.9286 17.5179Z" fill="#4F2F00"/>
</svg>
