<svg width="35" height="35" viewBox="0 0 35 35" fill="none" xmlns="http://www.w3.org/2000/svg">
<path d="M6.50006 24.4575L6.49772 24.6126L6.58364 24.7419C8.92986 28.2703 12.9506 30.6 17.5 30.6C22.0494 30.6 26.0701 28.2703 28.4164 24.7419L28.5023 24.6126L28.4999 24.4575C28.4841 23.4068 27.9446 22.5144 27.1685 21.7885C26.3944 21.0644 25.3511 20.4716 24.229 20.0027C21.9869 19.0659 19.3097 18.575 17.5 18.575C15.6817 18.575 13.0044 19.0658 10.7643 20.0028C9.64316 20.4717 8.60142 21.0646 7.82869 21.7888C7.05384 22.5149 6.51589 23.4072 6.50006 24.4575ZM0.5 17.5C0.5 8.11614 8.11614 0.5 17.5 0.5C26.8839 0.5 34.5 8.11614 34.5 17.5C34.5 26.8839 26.8839 34.5 17.5 34.5C8.11614 34.5 0.5 26.8839 0.5 17.5ZM23.25 10.5C23.25 7.31886 20.6811 4.75 17.5 4.75C14.3189 4.75 11.75 7.31886 11.75 10.5C11.75 13.6811 14.3189 16.25 17.5 16.25C20.6811 16.25 23.25 13.6811 23.25 10.5Z" fill="#F1E4A1" stroke="#5B3700"/>
</svg>
