<svg width="37" height="37" viewBox="0 0 37 37" fill="none" xmlns="http://www.w3.org/2000/svg">
<path fill-rule="evenodd" clip-rule="evenodd" d="M14.3749 0.421883C15.6788 0.141588 17.0087 0.000243647 18.3424 0.000220647C23.6743 -0.0258524 28.7559 2.25989 32.2738 6.2667C35.7917 10.2735 37.4007 15.6081 36.6849 20.8918C35.5349 29.7085 26.8332 36.8385 17.9399 36.8385H5.17488C4.0898 36.839 3.08422 36.2695 2.52653 35.3387C1.96884 34.4079 1.941 33.2526 2.45321 32.296L2.97071 31.2993C3.48576 30.3394 3.44922 29.1775 2.87488 28.2518C-0.341863 23.1949 -0.894137 16.8882 1.39473 11.3492C3.68358 5.81018 8.52673 1.73298 14.3749 0.421883ZM17.7866 33.9443C25.6001 33.8211 32.2451 28.2101 33.6757 20.5277C34.3256 16.0754 32.9871 11.5624 30.0149 8.18438C27.0708 4.81541 22.8165 2.88034 18.3424 2.87522C17.2092 2.87738 16.0792 2.99296 14.9691 3.22022C10.0339 4.31828 5.94113 7.74791 3.99658 12.4148C2.05204 17.0817 2.49869 22.4027 5.19404 26.6802C6.34077 28.4817 6.42146 30.763 5.40487 32.641L4.88737 33.6185C4.84525 33.6825 4.84525 33.7654 4.88737 33.8293C4.96404 33.9443 5.07904 33.9443 5.07904 33.9443H17.7866Z" fill="#4F2F00"/>
</svg>
